<?xml version="1.0" encoding="UTF-8"?>
<svg width="16px" height="16px" viewBox="0 0 16 16" version="1.1" xmlns="http://www.w3.org/2000/svg" xmlns:xlink="http://www.w3.org/1999/xlink">
    <!-- Generator: Sketch 52.5 (67469) - http://www.bohemiancoding.com/sketch -->
    <title>bell</title>
    <desc>Created with Sketch.</desc>
    <g id="Maquetas" stroke="none" stroke-width="1" fill="none" fill-rule="evenodd">
        <g id="Desktop" transform="translate(-1193.000000, -34.000000)" stroke="#FFFFFF">
            <g id="TOP" transform="translate(165.000000, 20.000000)">
                <g id="Bell" transform="translate(1029.000000, 14.000000)">
                    <g id="bell">
                        <g>
                            <path d="M5.21527416,13.5936848 C5.20678118,13.6570557 5.2019238,13.7214933 5.2019238,13.7869976 C5.2019238,14.6557566 5.96924181,15.3600027 6.9157765,15.3600027 C7.862341,15.3600027 8.629659,14.6557566 8.629659,13.7869976 C8.629659,13.7214933 8.62477182,13.6570557 8.61630864,13.5936848 L5.21527416,13.5936848 Z" id="Fill-1"></path>
                            <path d="M12.4337878,10.931081 L12.4162323,10.931081 C11.9687432,10.8058799 11.6417646,10.4084581 11.6417646,9.93718746 L11.6417646,7.29646085 C11.6417646,7.29363464 11.6416178,7.29086496 11.6416178,7.28806701 C11.6432324,7.23903225 11.6443186,7.18985618 11.6443186,7.14042575 C11.6443186,4.61930439 9.5213651,2.57550177 6.90257136,2.57550177 C4.28374826,2.57550177 2.16079474,4.61930439 2.16079474,7.14042575 C2.16079474,7.1713445 2.16138188,7.20212194 2.16199837,7.23289937 C2.16173416,7.25409595 2.16079474,7.27517949 2.16079474,7.29646085 L2.16079474,9.93718746 C2.16079474,10.4084581 1.83352258,10.8058799 1.38594532,10.931081 L1.36836046,10.931081 C0.612622474,10.931081 0,11.5208547 0,12.2484344 C0,12.9759576 0.612622474,13.5658161 1.36836046,13.5658161 L12.4337878,13.5658161 C13.1895258,13.5658161 13.8021777,12.9759576 13.8021777,12.2484344 C13.8021483,11.5208547 13.1895258,10.931081 12.4337878,10.931081" id="Fill-4"></path>
                            <ellipse id="Oval" cx="7" cy="1.58763305" rx="1" ry="1"></ellipse>
                        </g>
                    </g>
                </g>
            </g>
        </g>
    </g>
</svg>