<?xml version="1.0" encoding="UTF-8"?>
<svg width="95px" height="26px" viewBox="0 0 95 26" version="1.1" xmlns="http://www.w3.org/2000/svg" xmlns:xlink="http://www.w3.org/1999/xlink">
    <!-- Generator: Sketch 52.5 (67469) - http://www.bohemiancoding.com/sketch -->
    <title>liteflix</title>
    <desc>Created with Sketch.</desc>
    <defs>
        <polygon id="path-1" points="4.34782609e-05 0.189170312 4.99047826 0.189170312 4.99047826 26 4.34782609e-05 26"></polygon>
        <polygon id="path-3" points="0.134583333 0.193958333 4.91708333 0.193958333 4.91708333 4.97620846 0.134583333 4.97620846"></polygon>
        <polygon id="path-5" points="0.134583333 0.166382796 4.91708333 0.166382796 4.91708333 19 0.134583333 19"></polygon>
        <polygon id="path-7" points="0.104208333 0.189170312 4.88670833 0.189170312 4.88670833 26 0.104208333 26"></polygon>
        <polygon id="path-9" points="0.0305208333 0.193958333 4.8128125 0.193958333 4.8128125 4.97620846 0.0305208333 4.97620846"></polygon>
        <polygon id="path-11" points="0.0305208333 0.166382796 4.8128125 0.166382796 4.8128125 19 0.0305208333 19"></polygon>
        <polygon id="path-13" points="0.070779661 0.177744828 11.8348475 0.177744828 11.8348475 24 0.070779661 24"></polygon>
        <polygon id="path-15" points="0.07664 0.166668817 14.86184 0.166668817 14.86184 19 0.07664 19"></polygon>
        <polygon id="path-17" points="0.0829558016 0.166362366 15.9051835 0.166362366 15.9051835 19 0.0829558016 19"></polygon>
    </defs>
    <g id="Maquetas" stroke="none" stroke-width="1" fill="none" fill-rule="evenodd">
        <g id="Desktop" transform="translate(-165.000000, -20.000000)">
            <g id="TOP" transform="translate(165.000000, 20.000000)">
                <g id="liteflix">
                    <g>
                        <g id="Group-3">
                            <mask id="mask-2" fill="white">
                                <use xlink:href="#path-1"></use>
                            </mask>
                            <g id="Clip-2"></g>
                            <path d="M4.16504348,26.0000609 L0.825043478,26.0000609 C0.274826087,26.0000609 4.34782609e-05,25.7427016 4.34782609e-05,25.2287953 L4.34782609e-05,0.960029687 C4.34782609e-05,0.445920312 0.274826087,0.189170312 0.825043478,0.189170312 L4.16504348,0.189170312 C4.71526087,0.189170312 4.99047826,0.445920312 4.99047826,0.960029687 L4.99047826,25.2287953 C4.99047826,25.7427016 4.71526087,26.0000609 4.16504348,26.0000609" id="Fill-1" fill="#FF0000" mask="url(#mask-2)"></path>
                        </g>
                        <g id="Group-6" transform="translate(9.000000, 0.000000)">
                            <mask id="mask-4" fill="white">
                                <use xlink:href="#path-3"></use>
                            </mask>
                            <g id="Clip-5"></g>
                            <path d="M0.134583333,4.22308333 L0.134583333,0.946833333 C0.134583333,0.444958333 0.385208333,0.193916667 0.8875,0.193916667 L4.16375,0.193916667 C4.665625,0.193916667 4.91708333,0.432666667 4.91708333,0.909125 L4.91708333,4.222875 C4.91708333,4.72558333 4.66583333,4.97620833 4.16375,4.97620833 L0.8875,4.97620833 C0.385208333,4.97641667 0.134583333,4.72579167 0.134583333,4.22308333" id="Fill-4" fill="#FF0000" mask="url(#mask-4)"></path>
                        </g>
                        <g id="Group-9" transform="translate(9.000000, 7.000000)">
                            <mask id="mask-6" fill="white">
                                <use xlink:href="#path-5"></use>
                            </mask>
                            <g id="Clip-8"></g>
                            <path d="M0.134583333,18.2243505 L0.134583333,0.94231828 C0.134583333,0.425027957 0.385208333,0.166382796 0.8875,0.166382796 L4.12604167,0.166382796 C4.65333333,0.166382796 4.91708333,0.425027957 4.91708333,0.94231828 L4.91708333,18.2243505 C4.91708333,18.5444903 4.860625,18.7543075 4.7475,18.8521677 C4.63458333,18.9510495 4.43958333,19.0000817 4.16375,19.0000817 L0.925208333,19.0000817 C0.397916667,19.0000817 0.134583333,18.7412323 0.134583333,18.2243505" id="Fill-7" fill="#FF0000" mask="url(#mask-6)"></path>
                        </g>
                        <g id="Group-12" transform="translate(62.000000, 0.000000)">
                            <mask id="mask-8" fill="white">
                                <use xlink:href="#path-7"></use>
                            </mask>
                            <g id="Clip-11"></g>
                            <path d="M4.09566667,26.0000609 L0.894833333,26.0000609 C0.367333333,26.0000609 0.104208333,25.7427016 0.104208333,25.2287953 L0.104208333,0.960029687 C0.104208333,0.445920312 0.367333333,0.189170312 0.894833333,0.189170312 L4.09566667,0.189170312 C4.62295833,0.189170312 4.88670833,0.445920312 4.88670833,0.960029687 L4.88670833,25.2287953 C4.88670833,25.7427016 4.62295833,26.0000609 4.09566667,26.0000609" id="Fill-10" fill="#FF0000" mask="url(#mask-8)"></path>
                        </g>
                        <g id="Group-15" transform="translate(71.000000, 0.000000)">
                            <mask id="mask-10" fill="white">
                                <use xlink:href="#path-9"></use>
                            </mask>
                            <g id="Clip-14"></g>
                            <path d="M0.0305208333,4.22308333 L0.0305208333,0.946833333 C0.0305208333,0.444958333 0.2809375,0.193916667 0.783229167,0.193916667 L4.0596875,0.193916667 C4.56135417,0.193916667 4.8128125,0.432666667 4.8128125,0.909125 L4.8128125,4.222875 C4.8128125,4.72558333 4.56177083,4.97620833 4.0596875,4.97620833 L0.783229167,4.97620833 C0.2809375,4.97641667 0.0305208333,4.72579167 0.0305208333,4.22308333" id="Fill-13" fill="#FF0000" mask="url(#mask-10)"></path>
                        </g>
                        <g id="Group-18" transform="translate(71.000000, 7.000000)">
                            <mask id="mask-12" fill="white">
                                <use xlink:href="#path-11"></use>
                            </mask>
                            <g id="Clip-17"></g>
                            <path d="M0.0305208333,18.2243505 L0.0305208333,0.94231828 C0.0305208333,0.425027957 0.2809375,0.166382796 0.783229167,0.166382796 L4.02177083,0.166382796 C4.5490625,0.166382796 4.8128125,0.425027957 4.8128125,0.94231828 L4.8128125,18.2243505 C4.8128125,18.5444903 4.7565625,18.7543075 4.6434375,18.8521677 C4.53052083,18.9510495 4.3353125,19.0000817 4.0596875,19.0000817 L0.821145833,19.0000817 C0.293854167,19.0000817 0.0305208333,18.7412323 0.0305208333,18.2243505" id="Fill-16" fill="#FF0000" mask="url(#mask-12)"></path>
                        </g>
                        <g id="Group-21" transform="translate(16.000000, 2.000000)">
                            <mask id="mask-14" fill="white">
                                <use xlink:href="#path-13"></use>
                            </mask>
                            <g id="Clip-20"></g>
                            <path d="M2.31315254,9.0411931 L0.842644068,9.0411931 C0.548745763,9.0411931 0.346576271,8.99153793 0.236338983,8.8916069 C0.126101695,8.79229655 0.070779661,8.59243448 0.070779661,8.29305517 L0.070779661,5.71284828 C0.070779661,5.1891931 0.328271186,4.92726207 0.842644068,4.92726207 L2.31315254,4.92726207 C2.58264407,4.92726207 2.71769492,4.79050345 2.71769492,4.51574483 L2.71769492,0.963331034 C2.71769492,0.439675862 2.98718644,0.177744828 3.52657627,0.177744828 L6.61464407,0.177744828 C7.12901695,0.177744828 7.38650847,0.439675862 7.38650847,0.963331034 L7.38650847,4.51574483 C7.38650847,4.79050345 7.53355932,4.92726207 7.82786441,4.92726207 L10.6954576,4.92726207 C11.2102373,4.92726207 11.4677288,5.1891931 11.4677288,5.71284828 L11.4677288,8.29326207 C11.4677288,8.56802069 11.4126102,8.76084828 11.3021695,8.87298621 C11.1919322,8.98512414 10.9895593,9.0414 10.6954576,9.0414 L7.82786441,9.0414 C7.53376271,9.0414 7.38650847,9.17877931 7.38650847,9.45291724 L7.38650847,17.7174 C7.38650847,18.4907793 7.55755932,19.0452621 7.90128814,19.3818828 C8.24420339,19.7185034 8.80779661,19.8869172 9.59247458,19.8869172 L11.0629831,19.8869172 C11.5773559,19.8869172 11.8348475,20.1480207 11.8348475,20.6716759 L11.8348475,23.2518828 C11.8348475,23.5266414 11.7797288,23.719469 11.6692881,23.8316069 C11.5590508,23.9437448 11.3570847,24.0000207 11.0629831,24.0000207 L8.82020339,24.0000207 C6.8839322,24.0000207 5.38271186,23.4763655 4.31674576,22.429469 C3.25077966,21.3823655 2.71749153,19.8865034 2.71749153,17.9416759 L2.71749153,9.45271034 C2.71769492,9.17857241 2.58244068,9.0411931 2.31315254,9.0411931" id="Fill-19" fill="#FF0000" mask="url(#mask-14)"></path>
                        </g>
                        <path d="M49.2873444,10.8172241 C49.5620332,10.8172241 49.7,10.6788199 49.6997925,10.4026368 L49.6997925,8.10354261 C49.6997925,6.14399736 50.2437759,4.63718397 51.3311203,3.58206026 C52.4184647,2.52756186 53.9497925,2 55.9248963,2 L58.2128631,2 C58.5126556,2 58.7186722,2.0566957 58.8311203,2.16967023 C58.9437759,2.28264476 59,2.47691092 59,2.75371935 L59,5.35317567 C59,5.88073753 58.7373444,6.14378892 58.2128631,6.14378892 L56.7126556,6.14378892 C55.9122407,6.14378892 55.3373444,6.31345915 54.9875519,6.65259117 C54.6369295,6.99172319 54.4624481,7.55034262 54.4624481,8.32949167 L54.4624481,10.4024283 C54.4624481,10.6786114 54.6126556,10.8170157 54.9126556,10.8170157 L57.8377593,10.8170157 C58.1377593,10.8170157 58.3441909,10.8737114 58.456639,10.9866859 C58.5692946,11.0996604 58.6255187,11.2939266 58.6255187,11.570735 L58.6255187,14.1703998 C58.6255187,14.6979616 58.3628631,14.9618468 57.8377593,14.9618468 L54.9126556,14.9618468 C54.6124481,14.9618468 54.4624481,15.0996257 54.4624481,15.3764341 L54.4624481,25.208553 C54.4624481,25.7361149 54.1997925,26 53.6751037,26 L50.5251037,26 C49.9748963,26 49.7,25.7361149 49.7,25.208553 L49.7,15.3764341 C49.7,15.0996257 49.5622407,14.9618468 49.2873444,14.9618468 L47.7873444,14.9618468 C47.2626556,14.9618468 47,14.6979616 47,14.1703998 L47,11.5709435 C47,11.2693306 47.0564315,11.0679775 47.1688797,10.9679263 C47.2813278,10.8672497 47.4875519,10.8172241 47.7873444,10.8172241 L49.2873444,10.8172241 Z" id="Fill-22" fill="#FF0000"></path>
                        <g id="Group-26" transform="translate(31.000000, 7.000000)">
                            <mask id="mask-16" fill="white">
                                <use xlink:href="#path-15"></use>
                            </mask>
                            <g id="Clip-25"></g>
                            <path d="M4.63144,6.33349677 C4.63144,5.54571183 4.78784,4.99246452 5.10144,4.67212043 C5.41444,4.35259355 5.95644,4.1920129 6.72804,4.1920129 L8.24664,4.1920129 C9.01744,4.1920129 9.55984,4.35238925 9.87344,4.67212043 C10.18624,4.99246452 10.34324,5.54571183 10.34324,6.33349677 L10.34324,8.10642151 C10.34324,8.37773333 10.21044,8.51277634 9.94524,8.51277634 L5.02924,8.51277634 C4.76364,8.51277634 4.63164,8.37773333 4.63144,8.10642151 L4.63144,6.33349677 Z M5.02924,11.6516581 L14.10284,11.6516581 C14.60884,11.6516581 14.86184,11.3930129 14.86184,10.8759269 L14.86184,6.1857871 C14.86184,4.24165806 14.34364,2.75148602 13.30764,1.71792688 C12.27124,0.683754839 10.80084,0.166668817 8.89724,0.166668817 L6.04144,0.166668817 C4.13684,0.166668817 2.66684,0.683754839 1.63104,1.71792688 C0.59444,2.75148602 0.07664,4.24165806 0.07664,6.1857871 L0.07664,12.9808409 C0.07664,14.9255828 0.59444,16.4151419 1.63104,17.4495183 C2.66684,18.4828731 4.13704,19.0001634 6.04144,19.0001634 L14.03084,19.0001634 C14.31984,19.0001634 14.51864,18.9445935 14.62684,18.8334538 C14.73544,18.7227226 14.78964,18.532314 14.78964,18.2610022 L14.78964,15.8240989 C14.78964,15.2827011 14.53624,15.0120022 14.03064,15.0120022 L6.72804,15.0120022 C5.95644,15.0120022 5.40844,14.8459054 5.08344,14.5135075 C4.75804,14.1811097 4.59504,13.6333785 4.59504,12.8699054 L4.59504,12.0571957 C4.59504,11.7867011 4.74004,11.6516581 5.02924,11.6516581 Z" id="Fill-24" fill="#FF0000" mask="url(#mask-16)"></path>
                        </g>
                        <g id="Group-29" transform="translate(79.000000, 7.000000)">
                            <mask id="mask-18" fill="white">
                                <use xlink:href="#path-17"></use>
                            </mask>
                            <g id="Clip-28"></g>
                            <path d="M4.48758974,19.0000613 L0.742564103,19.0000613 C0.0996923077,19.0000613 -0.073025641,18.7412118 0.223384615,18.2243301 L4.89517949,9.39872796 L0.223589744,0.942297849 C-0.0235897436,0.425211828 0.124717949,0.166362366 0.668512821,0.166362366 L4.45066667,0.166362366 C5.04369231,0.166362366 5.42666667,0.425211828 5.6,0.942297849 L7.93620513,6.55506129 L8.08389744,6.55506129 L10.1234872,0.942297849 C10.2957949,0.425211828 10.6797949,0.166362366 11.2726154,0.166362366 L14.9805128,0.166362366 C15.6231795,0.166362366 15.7835897,0.425211828 15.4625641,0.942297849 L11.0133333,9.39872796 L15.7963077,18.2243301 C15.9195897,18.4459968 15.9382564,18.6304806 15.8518974,18.7783946 C15.7649231,18.9261043 15.5979487,19.0000613 15.3511795,19.0000613 L11.5323077,19.0000613 C11.0135385,19.0000613 10.6426667,18.7412118 10.4201026,18.2243301 L8.08410256,12.5743839 L7.93620513,12.5743839 L5.60020513,18.2243301 C5.42666667,18.7412118 5.056,19.0000613 4.48758974,19.0000613" id="Fill-27" fill="#FF0000" mask="url(#mask-18)"></path>
                        </g>
                    </g>
                </g>
            </g>
        </g>
    </g>
</svg>